<svg xmlns="http://www.w3.org/2000/svg" width="60" height="60" fill="none"><path fill="#000" d="M28.125 31.875h-12.5c-.531 0-.976-.18-1.336-.54-.36-.359-.539-.804-.539-1.336 0-.531.18-.976.54-1.335.359-.36.804-.539 1.335-.539h12.5v-12.5c0-.531.18-.976.54-1.336.359-.36.804-.539 1.336-.539.531 0 .977.18 1.336.54.358.359.538.804.538 1.335v12.5h12.5c.531 0 .977.18 1.336.54.36.359.539.804.539 1.336 0 .531-.18.976-.54 1.335-.358.36-.804.539-1.335.539h-12.5v12.5c0 .531-.18.977-.54 1.336-.359.36-.804.539-1.336.539-.531 0-.976-.18-1.335-.54-.36-.358-.539-.804-.539-1.335v-12.5Z"/></svg>