<svg xmlns="http://www.w3.org/2000/svg" width="60" height="60" fill="none"><path fill="#000" d="m30 32.652-8.839 8.838c-.375.376-.817.564-1.326.564-.508 0-.95-.188-1.326-.564-.376-.376-.564-.818-.563-1.326 0-.508.188-.95.564-1.325L27.348 30l-8.838-8.839c-.376-.376-.564-.818-.564-1.326 0-.508.188-.95.564-1.326.376-.376.818-.564 1.326-.563.508 0 .95.188 1.325.564L30 27.348l8.839-8.838c.376-.376.818-.564 1.326-.564.508 0 .95.188 1.326.564.376.376.564.818.563 1.326 0 .508-.188.95-.564 1.325L32.652 30l8.838 8.839c.376.376.564.818.564 1.326 0 .508-.188.95-.564 1.326-.376.376-.818.564-1.326.563-.508 0-.95-.188-1.325-.564L30 32.652Z"/></svg>